<?xml version="1.0" encoding="utf-8"?>
<!-- Generator: Adobe Illustrator 25.0.0, SVG Export Plug-In . SVG Version: 6.00 Build 0)  -->
<svg version="1.1" id="Camada_1" xmlns="http://www.w3.org/2000/svg" xmlns:xlink="http://www.w3.org/1999/xlink" x="0px" y="0px"
	viewBox="0 0 1920 1080" style="enable-background:new 0 0 1920 1080;" xml:space="preserve">
<style type="text/css">
	.st0{fill:#C6C6C6;}
	.st1{fill:#FE5C40;}
	.st2{fill:#CCCCCC;}
</style>
<path class="st0" d="M918.28,506.71c-2.16-1.16-4.36-2.25-6.47-3.49c-2.49-1.47-4.89-3.05-7.21-4.8c-2.64-1.99-5.12-4.11-7.37-6.52
	c-1.89-2.02-3.23-4.43-4.59-6.81c-1.48-2.57-2.48-5.32-2.8-8.28c-0.25-2.33-0.3-4.63-0.01-6.99c0.36-2.95,1.41-5.58,2.84-8.09
	c0.71-1.25,1.79-2.27,2.89-3.21c1.77-1.5,3.62-2.87,5.82-3.71c1.66-0.63,3.43-1.23,5.13-1.24c2.43-0.02,4.9-0.23,7.36,0.36
	c2.05,0.49,4.04,1.11,5.92,1.97c1.96,0.89,3.7,2.22,5.33,3.65c0.84,0.74,1.58,1.59,2.5,2.53c-0.26-2.46,0.66-4.58,0.92-6.81
	c0.18-1.62,0.65-3.28,1-4.91c0.27-1.29,1.92-2.21,3.15-1.76c0.5,0.18,0.67,0.63,0.63,1.13c-0.23,2.84-0.7,5.65-0.71,8.52
	c0,1.69-0.29,3.41-0.15,5.1c0.25,2.94,0.2,5.9,0.64,8.84c0.37,2.44,0.97,4.84,1.14,7.3c0.02,0.23,0.05,0.37,0.2,0.45
	c0.24,0.13,0.27-0.09,0.4-0.24c1.25-1.51,2.5-3.03,3.82-4.48c0.96-1.04,2.09-1.92,3.04-2.96c1.13-1.23,2.43-2.29,3.6-3.47
	c0.91-0.92,2.13-1.6,3.15-2.46c1.57-1.33,3.43-2.26,5.03-3.57c0.88-0.71,2.08-1.26,3.17-1.8c0.92-0.46,1.73-1.41,2.72-1.72
	c2.64-0.81,4.94-2.35,7.63-3.13c2.21-0.64,4.4-1.64,6.64-2.19c3.14-0.76,6.39-1.17,9.62-1.6c3.35-0.45,6.67-0.33,10-0.39
	c1.56-0.03,3.17,0.41,4.66,0.34c2.56-0.12,4.93,0.64,7.38,0.93c1.4,0.17,2.86,0.57,4.27,0.94c1.77,0.46,3.34,1.48,5.2,1.66
	c0.81,0.08,1.61,0.6,2.34,1.04c1.97,1.16,4.1,2.03,5.91,3.45c2.12,1.66,4.13,3.38,5.85,5.53c1.88,2.35,3.36,4.85,4.59,7.55
	c0.27,0.59,0.6,1.2,0.68,1.84c0.18,1.4,0.51,2.83,0.96,4.08c0.81,2.28,0.4,4.51,0.48,6.75c0.09,2.6-0.84,5.05-1.29,7.58
	c-0.39,2.18-1.36,4.09-2.15,6.05c-0.48,1.18-1,2.52-1.99,3.55c-1.21,1.27-1.77,3.01-2.96,4.36c-1.3,1.48-2.57,2.98-4,4.33
	c-2.39,2.26-4.92,4.38-7.82,5.95c-1.84,0.99-3.53,2.25-5.6,2.84c-1.05,0.3-1.97,1.04-2.95,1.58c-2.15,0.77-4.31,1.54-6.46,2.31
	c-0.63-0.18-1.06,0.44-1.58,0.45c-2.14,0.03-4.18,0.69-6.35,0.68c-2.47-0.01-4.96,0.25-7.45,0.33c0.34-0.72,0.7-1.42,1.01-2.15
	c0.77-1.87,1.84-3.15,4.17-2.58c0.61,0.15,1.34-0.06,1.99-0.2c2.31-0.49,4.7-0.7,6.77-1.99c0.2-0.11,0.4-0.21,0.64-0.26
	c4.01-0.92,7.9-2.19,11.31-4.56c2.1-1.46,4.18-2.96,6-4.82c1.47-1.52,2.87-3.08,4.18-4.73c1.09-1.37,2.03-2.83,2.87-4.4
	c0.9-1.67,1.84-3.31,2.3-5.15c0.62-2.44,1.15-4.9,1.54-7.41c0.52-3.33-0.28-6.45-1.05-9.59c-0.49-2-1.18-3.91-2.38-5.65
	c-1.52-2.21-3.12-4.29-5.19-6.03c-1.73-1.46-3.63-2.6-5.54-3.75c-2.62-1.58-5.63-2.24-8.5-3.19c-2.43-0.81-5.08-0.94-7.64-1.11
	c-4.01-0.27-8.02-0.01-12,0.49c-2.52,0.32-4.89,1.36-7.33,2.08c-2.03,0.59-3.92,1.47-5.85,2.34c-2.49,1.11-4.9,2.32-7.19,3.77
	c-0.68,0.43-1.51,0.67-2.1,1.2c-1.77,1.58-3.8,2.82-5.66,4.28c-3.48,2.73-6.58,5.8-9.62,8.99c-3.35,3.51-6.23,7.37-8.94,11.37
	c-0.37,0.54-0.36,1.16-0.05,1.48c0.6,0.61,0.69,1.39,0.99,2.08c1.33,3.15,3.24,5.94,5.3,8.65c1.65,2.18,3.55,4.11,5.67,5.83
	c0.3,0.25,0.61,0.49,0.91,0.74c2.26,1.89,4.49,3.77,7.35,4.77c0.96,0.33,1.97,0.52,2.88,0.93c2.96,1.33,6.08,2.07,9.25,2.66
	c1.44,0.4,2.94,0.44,4.39,0.71c1.42,0.27,2.88,0,4.27,0.46c-0.99,1.51-1.94,3.03-3.24,4.3c-1.2-0.12-2.43-0.13-3.6-0.4
	c-1.74-0.41-3.51-0.68-5.25-1.17c-1.51-0.42-3.03-0.92-4.58-1.15c-1.68-0.26-3.12-1.08-4.65-1.67c-1.58-0.61-3.15-1.26-4.6-2.22
	c-1.03-0.68-2.08-1.5-3.33-1.81c-3.14-0.77-6.31-1.42-9.44-2.25c-3.98-1.05-7.89-2.34-11.78-3.65c-1.63-0.44-3.19-1.08-4.73-1.74
	C922.43,508.62,920.36,507.65,918.28,506.71z M910.38,456.48c-2.32-0.16-6.28,0.92-7.84,2.42c-2.48,2.38-4.61,4.94-5.32,8.54
	c-0.52,2.63-0.51,5.18-0.03,7.75c0.3,1.61,0.9,3.16,1.55,4.68c1.98,4.66,5.12,8.46,8.61,12.02c2.1,2.14,4.53,3.9,7.02,5.55
	c1.83,1.21,3.71,2.35,5.58,3.51c0.42,0.26,0.93,0.53,0.93-0.36c0-0.22,0.08-0.37,0.23-0.52c1.05-1.05,1.54-2.48,2.28-3.7
	c0.84-1.41,1.66-2.91,2.51-4.31c1.12-1.83,2.46-3.58,3.77-5.3c0.37-0.49,0.46-1.03,0.28-1.44c-0.52-1.19-0.63-2.45-0.83-3.69
	c-0.2-1.21-0.57-2.39-0.76-3.59c-0.16-0.96-0.16-1.96-0.25-2.94c-0.06-0.62-0.57-1-0.49-1.75c0.18-1.66,0-3.36-0.92-4.83
	c-1.59-2.56-3.27-5.04-5.5-7.13C918.13,458.5,914.6,456.74,910.38,456.48z M934.88,498.9c-0.77,0.66-1.06,1.51-1.39,2.19
	c-0.78,1.59-1.8,3.1-2.16,4.93c-0.1,0.51-0.1,0.58,0.25,0.66c0.83,0.2,1.57,0.62,2.37,0.91c2.78,1.01,5.52,2.11,8.72,2.98
	C939.46,506.9,936.66,503.27,934.88,498.9z"/>
<path class="st1" d="M971.06,520.1c-3.17-0.59-6.29-1.34-9.25-2.66c-0.92-0.41-1.92-0.59-2.88-0.93c-2.87-0.99-5.1-2.88-7.35-4.77
	c-0.3-0.25-0.6-0.49-0.91-0.74c0.36-0.05,0.68,0,1.04,0.12c0.93,0.29,1.8,0.79,2.72,1.01c2.73,0.64,5.49,1.14,8.21,1.88
	c4.49,1.2,9.13,1.56,13.78,1.79c1.56,0.08,3.14,0.23,4.71,0.37c1.16,0.1,2.49,0.73,3.58-0.29c2.44-2.27,4.98-4.38,8.1-5.71
	c1.25-0.53,2.36-1.38,3.84-1.14c0.66,0.11,0.86,0.3,0.5,0.91c-0.49,0.83-1.13,1.49-1.85,2.13c-1.61,1.43-3.14,2.94-4.7,4.42
	c-0.2,0.19-0.41,0.38-0.33,0.71c0.07,0.27,0.28,0.24,0.47,0.24c1.98,0.01,3.87,0.54,5.75,1.03c0.8,0.21,1.79-0.16,2.43,0.65
	c-2.07,1.29-4.47,1.5-6.77,1.99c-0.65,0.14-1.38,0.35-1.99,0.2c-2.33-0.57-3.4,0.72-4.17,2.58c-0.3,0.73-0.67,1.43-1.01,2.15
	c-1.71,2.64-2.86,5.57-4.3,8.35c-1.79,3.48-3.35,7.08-4.95,10.66c-1.54,3.45-3.03,6.94-4.56,10.39c-1.48,3.33-2.81,6.75-4.52,9.99
	c-1.1,2.09-1.84,4.37-2.83,6.52c-1.48,3.23-3.03,6.43-4.57,9.64c-0.29,0.6-1.04,1.23-0.73,1.8c0.43,0.78,1.29,0.03,1.96,0.04
	c4.07,0.07,7.88-1.26,11.71-2.32c2.2-0.61,4.42-1.39,6.53-2.34c0.57-0.25,1.24-0.32,1.74-0.65c2.1-1.43,4.52-2.24,6.74-3.46
	c4.19-2.31,7.99-5.09,11.52-8.26c2.85-2.57,5.32-5.49,7.62-8.59c2.1-2.82,3.67-5.87,4.84-9.13c1.17-3.24,1.35-6.65,1.1-10.06
	c-0.07-0.96-0.21-2.02-0.59-2.85c-0.89-1.95-1.56-4.03-3.11-5.66c-1.07-1.12-2.17-2.16-3.41-3.09c-1.48-1.11-3.27-1.5-4.82-2.42
	c2.15-0.77,4.31-1.54,6.46-2.31c0.94,0.93,2.19,1.38,3.28,2.09c3.43,2.23,6.48,4.85,8.69,8.32c1.62,2.55,2.33,5.4,2.7,8.38
	c0.14,1.12-0.3,2.22,0.09,3.3c-0.57,3.02-1.43,5.96-2.84,8.69c-2.29,4.44-5.25,8.43-8.68,12.04c-5.3,5.57-11.47,9.99-18.36,13.41
	c-3.46,1.72-7.03,3.15-10.75,4.22c-3.42,0.98-6.8,2.04-10.3,2.75c-4.13,0.84-8.28,1.6-12.49,1.77c-1.53,0.06-2.38,0.53-2.82,1.91
	c-1.24,1.1-1.73,2.68-2.52,4.06c-0.95,1.67-2.06,3.22-3.05,4.86c-2.92,4.83-6.3,9.35-9.85,13.74c-3.13,3.87-6.83,7.13-10.79,10.11
	c-1.26,0.95-2.49,1.95-3.9,2.62c-2.28,1.09-4.48,2.35-6.9,3.19c-1.76,0.61-3.54,1.16-5.33,1.59c-2.31,0.56-4.7,0.97-7.07,1.08
	c-3.22,0.15-6.49,0.13-9.67-0.48c-2.23-0.43-4.41-1.25-6.36-2.52c-1.8-1.18-3.24-2.78-4.26-4.6c-0.9-1.61-1.27-3.45-1.33-5.42
	c-0.1-3.13,1.48-5.41,3.22-7.57c1.61-2.01,3.79-3.62,6.21-4.43c2.72-0.91,5.59-1.38,8.54-1.37c2.8,0.01,5.53,0.5,8.29,0.8
	c0.67,0.07,1.31,0.43,1.95,0.71c0.52,0.23,0.89,0.67,0.65,1.24c-0.24,0.56-0.83,0.64-1.39,0.54c-1.98-0.35-3.96-1.04-5.93-0.98
	c-2.04,0.06-4.13,0.06-6.18,0.82c-2.62,0.97-4.36,2.79-5.63,5.04c-1.08,1.92-1.48,4.02-0.9,6.4c0.62,2.53,1.92,4.32,3.95,5.69
	c1.56,1.05,3.37,1.55,5.22,1.57c0.76,0.01,1.52,0.08,2.29,0.07c1.9-0.03,3.7-0.55,5.54-0.92c1.92-0.39,3.7-1.16,5.53-1.77
	c1.12-0.37,2.11-1.14,3.18-1.67c3.47-1.72,6.36-4.21,9.23-6.77c2.47-2.2,4.67-4.67,6.62-7.28c1.56-2.09,3.07-4.29,4.32-6.65
	c0.78-1.47,1.65-2.92,2.47-4.38c1.22-2.2,2.23-4.51,3.38-6.75c0.38-0.74,0.95-1.51,0.95-2.44c0.75-1.76,1.5-3.52,2.25-5.28
	c0.76-0.61,0.77-1.58,1.12-2.38c0.75-1.72,1.32-3.53,2.03-5.28c1.22-3.03,2.49-6.05,3.75-9.06c0.87-2.07,1.66-4.18,2.66-6.18
	c0.82-1.64,1.48-3.34,2.33-4.96c1.22-2.32,2.05-4.85,3.33-7.14c1.1-1.98,2.03-4.04,3.2-5.99c1.85-3.08,3.49-6.3,5.56-9.22
	c1.38-1.93,2.47-4.13,4.36-5.68c0.18-0.15,0.17-0.34,0.08-0.54c1.3-1.27,2.26-2.8,3.24-4.3c0.24-0.23,0.64-0.34,0.64-0.98
	C977.25,520.49,974.16,520.1,971.06,520.1z"/>
<path class="st2" d="M948.07,582c-0.75,1.76-1.5,3.52-2.25,5.28c-1,0.24-1.98-0.17-2.71-0.6c-2-1.17-4.23-1.67-6.34-2.51
	c-1.51-0.6-2.87-1.48-4.28-2.25c-2.27-1.24-4.39-2.72-6.28-4.49c-1.19-1.12-2.43-2.15-3.44-3.53c-0.82-1.11-1.84-2.24-2.84-3.31
	c-1.84-1.97-3.06-4.42-4.13-6.78c-0.89-1.97-1.92-3.98-2.39-6.19c-0.67-3.15-1.32-6.29-1.74-9.5c-0.44-3.35-0.74-6.67-0.58-10.01
	c0.13-2.61,0.57-5.2,0.92-7.79c0.29-2.16,0.52-4.34,0.94-6.48c0.37-1.92,0.62-3.82,1.27-5.71c0.57-1.66,1.17-3.34,1.58-5.07
	c0.35-1.48,0.83-2.9,1.67-4.22c0.38-0.6,0.47-1.44,0.82-2.13c2.08,0.94,4.14,1.91,6.24,2.82c1.54,0.67,3.1,1.3,4.73,1.74
	c-0.12,0.08-0.33,0.15-0.35,0.25c-0.52,2.4-1.6,4.62-2.22,6.98c-0.44,1.68-0.96,3.35-1.4,5.02c-0.27,1.05-0.46,2.26-1.1,3.29
	c-0.52,0.84-0.2,1.95-0.6,2.95c-0.53,1.3-0.51,2.79-0.68,4.18c-0.3,2.36-0.35,4.74-0.71,7.13c-0.4,2.6-0.21,5.31-0.03,7.96
	c0.07,0.97-0.4,1.99,0.03,2.85c0.52,1.03,0.59,2.11,0.6,3.17c0.01,1.63,0.36,3.18,0.72,4.74c0.42,1.82,1.1,3.54,1.98,5.2
	c0.59,1.1,1.24,2.17,1.81,3.26c1.06,2,2.37,3.79,4.02,5.28c1.29,1.17,2.41,2.53,4.01,3.39c1.8,0.97,3.44,2.29,5.4,2.89
	C943.16,580.55,945.47,581.76,948.07,582z"/>
<path class="st2" d="M955.32,589.16c0.44-1.38,1.29-1.85,2.82-1.91c4.21-0.17,8.35-0.94,12.49-1.77c3.5-0.71,6.88-1.77,10.3-2.75
	c3.73-1.07,7.29-2.5,10.75-4.22c6.89-3.42,13.06-7.84,18.36-13.41c3.43-3.61,6.39-7.6,8.68-12.04c1.41-2.73,2.27-5.67,2.84-8.69
	c0.39-1.12,1.01-2.07,1.99-2.78c0.37-0.27,0.76-0.07,1,0.04c0.39,0.18,0.48,0.61,0.55,1.12c0.27,1.92-1.31,3.1-1.74,4.73
	c-0.21,0.8-0.62,1.77-1.08,2.31c-0.75,0.89-1.07,1.92-1.64,2.85c-0.87,1.43-1.66,2.91-2.59,4.3c-1.05,1.58-1.78,3.34-3.04,4.8
	c-0.53,0.61-0.87,1.44-1.43,2.1c-0.91,1.08-1.65,2.33-2.66,3.31c-1.48,1.44-2.77,3.03-4.35,4.41c-1.66,1.45-3.32,2.95-5.08,4.26
	c-2.12,1.57-4.26,3.17-6.69,4.32c-0.97,0.46-1.78,1.33-2.86,1.69c-2.34,0.77-4.26,2.44-6.68,3.07c-1.67,0.43-3.33,0.98-4.87,1.79
	c-0.95,0.5-2.03,0.59-3.02,0.78c-2.82,0.52-5.68,0.92-8.5,1.39c-3.44,0.57-6.84,0.49-10.26,0.57
	C957.52,589.44,956.42,589.25,955.32,589.16z"/>
<path class="st1" d="M931.28,506.51l-11.1-5.43c0,0-13.55-6-20.87-19.94c0,0-6.23-13.75,3.23-22.25c0,0,10.14-8.35,22.3,6.78
	l2.54,4.41c0,0,0.66-6.76,0.22-8c0,0-6.18-9.15-18.91-8.55c0,0-15.86-0.21-18.48,14.13c0,0-5.11,17.74,13.43,30.04
	c0,0,18.33,13.32,38.94,17.61c0,0,6.62,1.49,8.34,1.99c0,0-6.58-4.45-7.98-6.72L931.28,506.51z"/>
</svg>
