<svg id="Camada_1" data-name="Camada 1" xmlns="http://www.w3.org/2000/svg" viewBox="0 0 151.31 182.01"><defs><style>.cls-1{fill:#333;}.cls-2{fill:#fe5c40;}.cls-3{fill:#363333;}</style></defs><path class="cls-1" d="M918.28,506.71c-2.16-1.16-4.36-2.25-6.47-3.49a77.79,77.79,0,0,1-7.21-4.8,55,55,0,0,1-7.36-6.52,35.72,35.72,0,0,1-4.6-6.81,21.2,21.2,0,0,1-2.8-8.28,30.26,30.26,0,0,1,0-7,21.43,21.43,0,0,1,2.84-8.09,12.56,12.56,0,0,1,2.88-3.21,20.36,20.36,0,0,1,5.83-3.71,15.52,15.52,0,0,1,5.13-1.24,29.81,29.81,0,0,1,7.35.36,33.71,33.71,0,0,1,5.92,2,22.13,22.13,0,0,1,5.33,3.65c.84.74,1.58,1.59,2.5,2.53-.26-2.46.66-4.59.91-6.82.19-1.62.65-3.27,1-4.91a2.56,2.56,0,0,1,3.15-1.76,1,1,0,0,1,.64,1.13c-.23,2.84-.71,5.64-.72,8.52,0,1.69-.29,3.41-.15,5.1.25,2.94.2,5.9.65,8.84.36,2.44,1,4.84,1.13,7.3,0,.23.06.37.2.46s.27-.09.4-.25c1.26-1.51,2.5-3,3.83-4.48,1-1,2.09-1.92,3-3,1.13-1.23,2.42-2.29,3.6-3.47.91-.92,2.13-1.6,3.15-2.46,1.57-1.33,3.42-2.26,5-3.57a17.4,17.4,0,0,1,3.18-1.8c.92-.45,1.73-1.41,2.71-1.71,2.64-.82,4.95-2.36,7.63-3.13,2.21-.64,4.4-1.65,6.64-2.19a93.2,93.2,0,0,1,9.62-1.59,85.91,85.91,0,0,1,10-.39c1.57,0,3.18.41,4.66.34,2.56-.12,4.93.64,7.38.93a32.88,32.88,0,0,1,4.26.94c1.77.46,3.34,1.48,5.2,1.66a6.38,6.38,0,0,1,2.35,1,51.93,51.93,0,0,1,5.9,3.45,34,34,0,0,1,5.85,5.53,35.44,35.44,0,0,1,4.59,7.55,6.4,6.4,0,0,1,.68,1.84,20.49,20.49,0,0,0,1,4.07c.82,2.28.4,4.51.49,6.75.09,2.59-.84,5-1.3,7.57a30.58,30.58,0,0,1-2.15,6.05,10.61,10.61,0,0,1-2,3.56c-1.21,1.26-1.77,3-3,4.36s-2.57,3-4,4.32a37.68,37.68,0,0,1-7.82,6c-1.84,1-3.53,2.25-5.6,2.84a15.38,15.38,0,0,0-3,1.58l-6.46,2.31c-.62-.17-1.06.45-1.57.45-2.14,0-4.18.69-6.35.68-2.47,0-5,.25-7.45.33.33-.71.7-1.42,1-2.15.78-1.86,1.84-3.15,4.17-2.58a4.74,4.74,0,0,0,2-.2c2.31-.49,4.7-.7,6.78-2a2.15,2.15,0,0,1,.64-.26,31.91,31.91,0,0,0,11.3-4.56,39.67,39.67,0,0,0,6-4.83,62.51,62.51,0,0,0,4.18-4.73,30.14,30.14,0,0,0,2.87-4.39,23.45,23.45,0,0,0,2.3-5.15c.62-2.45,1.15-4.9,1.54-7.41.52-3.33-.28-6.45-1-9.59a16.82,16.82,0,0,0-2.38-5.65,29.05,29.05,0,0,0-5.19-6,42.77,42.77,0,0,0-5.54-3.75c-2.62-1.57-5.63-2.23-8.5-3.19a30.52,30.52,0,0,0-7.64-1.11,61.74,61.74,0,0,0-12,.49,48.69,48.69,0,0,0-7.32,2.08,44.72,44.72,0,0,0-5.86,2.34,55.9,55.9,0,0,0-7.19,3.77,15.85,15.85,0,0,0-2.1,1.19c-1.78,1.58-3.8,2.82-5.66,4.28a92,92,0,0,0-9.62,9A86.67,86.67,0,0,0,938.76,493a1.2,1.2,0,0,0,0,1.48,5.94,5.94,0,0,1,1,2.08,40.77,40.77,0,0,0,5.29,8.65,33.28,33.28,0,0,0,5.68,5.82l.9.74c2.26,1.89,4.49,3.78,7.36,4.77,1,.33,2,.52,2.88.93a40.79,40.79,0,0,0,9.25,2.66c1.44.4,2.93.44,4.39.71s2.88,0,4.27.46a24.6,24.6,0,0,1-3.24,4.3,27,27,0,0,1-3.6-.4c-1.74-.4-3.51-.68-5.25-1.16a38.83,38.83,0,0,0-4.58-1.15,22.38,22.38,0,0,1-4.65-1.67,23.46,23.46,0,0,1-4.6-2.22,11.21,11.21,0,0,0-3.33-1.81c-3.14-.77-6.31-1.42-9.44-2.25-4-1-7.88-2.33-11.78-3.64a35.69,35.69,0,0,1-4.73-1.74C922.43,508.62,920.36,507.65,918.28,506.71Zm-7.9-50.23c-2.32-.16-6.27.92-7.84,2.41-2.48,2.38-4.61,4.94-5.32,8.54a20.21,20.21,0,0,0,0,7.75,23.32,23.32,0,0,0,1.54,4.68,39.48,39.48,0,0,0,8.61,12,42.82,42.82,0,0,0,7,5.55c1.83,1.21,3.7,2.36,5.57,3.51.42.26.93.53.93-.36a.75.75,0,0,1,.24-.53,17.38,17.38,0,0,0,2.28-3.7c.84-1.41,1.65-2.91,2.51-4.31a64.71,64.71,0,0,1,3.77-5.31,1.41,1.41,0,0,0,.28-1.43,15.27,15.27,0,0,1-.83-3.69c-.2-1.21-.57-2.39-.76-3.59-.16-1-.16-2-.25-2.94-.06-.62-.58-1-.5-1.75a7.45,7.45,0,0,0-.92-4.83,33.8,33.8,0,0,0-5.5-7.12A16.93,16.93,0,0,0,910.38,456.48Zm24.5,42.42a5.84,5.84,0,0,0-1.39,2.18,20.26,20.26,0,0,0-2.17,4.94c-.1.51-.09.58.26.66a21.7,21.7,0,0,1,2.36.91c2.78,1,5.53,2.12,8.73,3C939.46,506.9,936.66,503.27,934.88,498.9Z" transform="translate(-884.29 -448.47)"/><path class="cls-2" d="M971.06,520.1a40.79,40.79,0,0,1-9.25-2.66c-.92-.41-1.92-.6-2.88-.93-2.87-1-5.1-2.88-7.36-4.77l-.9-.74a2.5,2.5,0,0,1,1,.12c.93.3,1.79.79,2.72,1,2.73.64,5.49,1.14,8.21,1.88a66.27,66.27,0,0,0,13.78,1.79c1.56.08,3.14.23,4.7.36,1.16.11,2.49.73,3.58-.28a28.58,28.58,0,0,1,8.1-5.71c1.25-.53,2.35-1.38,3.84-1.14.66.11.86.3.5.91a9.18,9.18,0,0,1-1.85,2.13c-1.61,1.43-3.14,2.94-4.7,4.42-.2.19-.41.38-.33.71s.28.24.47.24a23.38,23.38,0,0,1,5.75,1c.8.2,1.79-.17,2.43.65-2.08,1.29-4.47,1.5-6.78,2a4.74,4.74,0,0,1-2,.2c-2.33-.57-3.39.72-4.17,2.58-.3.73-.67,1.44-1,2.15-1.71,2.64-2.86,5.57-4.3,8.35-1.79,3.48-3.35,7.08-4.95,10.66s-3,6.94-4.56,10.39-2.81,6.75-4.52,10c-1.1,2.09-1.84,4.37-2.82,6.52-1.49,3.24-3,6.44-4.58,9.64-.29.6-1,1.23-.73,1.79.43.78,1.29,0,2,0,4.07.07,7.89-1.26,11.72-2.32a45.06,45.06,0,0,0,6.53-2.34,10.94,10.94,0,0,0,1.74-.65c2.1-1.43,4.52-2.24,6.74-3.46a62,62,0,0,0,11.52-8.26,57.81,57.81,0,0,0,7.62-8.6,35.43,35.43,0,0,0,4.84-9.13,24,24,0,0,0,1.1-10.06,9.15,9.15,0,0,0-.59-2.85c-.89-2-1.57-4-3.11-5.66a27.11,27.11,0,0,0-3.42-3.09c-1.47-1.11-3.27-1.5-4.82-2.42l6.46-2.31a19,19,0,0,0,3.28,2.09,28.06,28.06,0,0,1,8.69,8.32,19.66,19.66,0,0,1,2.7,8.38c.14,1.12-.3,2.22.1,3.31a31.63,31.63,0,0,1-2.84,8.69,52.6,52.6,0,0,1-8.69,12,64.94,64.94,0,0,1-18.36,13.41,63.64,63.64,0,0,1-10.75,4.22c-3.42,1-6.8,2-10.3,2.75a79.93,79.93,0,0,1-12.49,1.77c-1.53.07-2.38.54-2.82,1.91-1.24,1.1-1.73,2.69-2.52,4.06-.95,1.67-2.06,3.22-3,4.86a124,124,0,0,1-9.85,13.73,59.84,59.84,0,0,1-10.79,10.12,22.23,22.23,0,0,1-3.89,2.61,68.48,68.48,0,0,1-6.9,3.19c-1.76.61-3.54,1.16-5.33,1.59a37.75,37.75,0,0,1-7.08,1.08,40.56,40.56,0,0,1-9.66-.47,17.67,17.67,0,0,1-6.36-2.52,13.19,13.19,0,0,1-4.26-4.6,11.69,11.69,0,0,1-1.34-5.42c-.09-3.13,1.49-5.41,3.23-7.57a13.69,13.69,0,0,1,6.21-4.44,26.29,26.29,0,0,1,8.54-1.36,79,79,0,0,1,8.3.79,7.57,7.57,0,0,1,1.94.71c.52.23.89.68.65,1.24a1.15,1.15,0,0,1-1.39.54c-2-.35-4-1-5.93-1a19.1,19.1,0,0,0-6.18.82,10.61,10.61,0,0,0-5.63,5,8.42,8.42,0,0,0-.89,6.4,9.14,9.14,0,0,0,4,5.7,9.43,9.43,0,0,0,5.22,1.57c.76,0,1.52.08,2.29.07a30.52,30.52,0,0,0,5.54-.92,51.61,51.61,0,0,0,5.53-1.77,26.19,26.19,0,0,0,3.18-1.68,42.27,42.27,0,0,0,9.23-6.77,48.91,48.91,0,0,0,6.62-7.27,50.64,50.64,0,0,0,4.32-6.66c.78-1.46,1.65-2.91,2.47-4.38,1.22-2.2,2.23-4.51,3.38-6.75a5.48,5.48,0,0,0,1-2.44l2.25-5.28c.75-.6.76-1.58,1.11-2.38.76-1.72,1.33-3.53,2-5.27,1.23-3,2.49-6.05,3.75-9.07.87-2.07,1.66-4.18,2.67-6.18.81-1.64,1.47-3.34,2.32-5,1.22-2.33,2-4.86,3.33-7.14,1.1-2,2-4,3.2-6,1.85-3.08,3.49-6.3,5.56-9.21,1.38-1.94,2.47-4.13,4.36-5.69a.41.41,0,0,0,.08-.54,24.6,24.6,0,0,0,3.24-4.3c.24-.24.64-.34.64-1C977.25,520.49,974.16,520.1,971.06,520.1Z" transform="translate(-884.29 -448.47)"/><path class="cls-1" d="M948.07,582l-2.25,5.28a3.78,3.78,0,0,1-2.71-.59c-2-1.17-4.23-1.67-6.34-2.51a41.53,41.53,0,0,1-4.28-2.26,29.85,29.85,0,0,1-6.28-4.49,26.15,26.15,0,0,1-3.44-3.53,37.75,37.75,0,0,0-2.84-3.31,24.57,24.57,0,0,1-4.13-6.78,30.77,30.77,0,0,1-2.39-6.19c-.67-3.15-1.32-6.29-1.74-9.5a54.26,54.26,0,0,1-.58-10c.13-2.6.57-5.2.92-7.79.3-2.16.52-4.33.94-6.48a40.94,40.94,0,0,1,1.27-5.72c.56-1.66,1.17-3.34,1.58-5.07a13.51,13.51,0,0,1,1.66-4.22c.38-.59.47-1.44.82-2.12,2.08.94,4.15,1.91,6.24,2.82a35.69,35.69,0,0,0,4.73,1.74c-.12.08-.33.14-.35.25-.52,2.4-1.61,4.62-2.22,7-.44,1.68-1,3.35-1.4,5a11.29,11.29,0,0,1-1.1,3.29c-.52.84-.2,2-.6,3a16.68,16.68,0,0,0-.69,4.17c-.3,2.36-.35,4.75-.71,7.13a35.9,35.9,0,0,0,0,8c.07,1-.4,2,0,2.84a7,7,0,0,1,.6,3.17,22.16,22.16,0,0,0,.71,4.74,21.14,21.14,0,0,0,2,5.2c.59,1.1,1.24,2.17,1.82,3.26a19,19,0,0,0,4,5.29,21.18,21.18,0,0,0,4,3.39c1.8,1,3.43,2.29,5.4,2.89C943.16,580.55,945.47,581.76,948.07,582Z" transform="translate(-884.29 -448.47)"/><path class="cls-3" d="M955.32,589.16c.44-1.37,1.29-1.84,2.82-1.91a79.93,79.93,0,0,0,12.49-1.77c3.5-.71,6.88-1.77,10.3-2.75a63.64,63.64,0,0,0,10.75-4.22A64.94,64.94,0,0,0,1010,565.1a52.6,52.6,0,0,0,8.69-12,31.63,31.63,0,0,0,2.84-8.69,5.52,5.52,0,0,1,2-2.79,1,1,0,0,1,1,0c.38.17.47.6.55,1.12.27,1.92-1.31,3.09-1.74,4.73a6.76,6.76,0,0,1-1.08,2.31,20.51,20.51,0,0,0-1.64,2.85c-.87,1.43-1.66,2.91-2.59,4.3a43.08,43.08,0,0,1-3,4.8c-.53.61-.87,1.44-1.43,2.1-.91,1.08-1.65,2.33-2.66,3.31-1.48,1.43-2.77,3-4.35,4.4s-3.32,3-5.08,4.26a40.73,40.73,0,0,1-6.69,4.33,25.09,25.09,0,0,1-2.85,1.68c-2.35.77-4.26,2.44-6.68,3.07a22.42,22.42,0,0,0-4.87,1.79,10.35,10.35,0,0,1-3,.78c-2.82.51-5.68.92-8.5,1.38a70.75,70.75,0,0,1-10.26.57A30.53,30.53,0,0,1,955.32,589.16Z" transform="translate(-884.29 -448.47)"/><path class="cls-2" d="M931.28,506.51l-11.1-5.43s-13.54-6-20.86-19.94c0,0-6.23-13.75,3.22-22.25,0,0,10.15-8.34,22.3,6.78l2.55,4.41s.66-6.76.22-8a22.09,22.09,0,0,0-18.91-8.55s-15.86-.21-18.48,14.13c0,0-5.11,17.74,13.44,30,0,0,18.32,13.32,38.93,17.61,0,0,6.62,1.49,8.34,2,0,0-6.58-4.45-8-6.72Z" transform="translate(-884.29 -448.47)"/></svg>