<svg width="400" height="461" viewBox="0 0 400 461" fill="none" xmlns="http://www.w3.org/2000/svg">
<path d="M91 424H127C136 424 140.5 419.5 140.5 410.5V113.5C140.5 108.833 139.333 105.5 137 103.5C135 101.167 131.667 100 127 100H91V84H244V100H200C195.333 100 191.833 101.167 189.5 103.5C187.5 105.5 186.5 108.833 186.5 113.5V410.5C186.5 419.5 191 424 200 424H250.5C268.167 424 284 420 298 412C312 404 322.5 392.333 329.5 377C334.833 365.667 339.167 353.667 342.5 341C346.167 328 348.833 317 350.5 308C352.167 299 353.167 293.333 353.5 291H366L361.5 440H91V424Z" fill="#35404A"/>
<path d="M142.176 419.06C118.411 411.971 100.026 398.974 87.0202 380.068C74.0149 361.162 66.3559 339.259 64.0432 314.359C62.0623 289.28 64.7686 264.346 72.1621 239.559C79.8605 213.749 91.2552 191.407 106.346 172.533C121.437 153.66 138.9 140.363 158.734 132.643C178.644 124.668 199.332 123.882 220.797 130.284C232.041 133.638 241.884 139.357 250.325 147.44C258.767 155.524 265.306 163.457 269.941 171.24C274.397 178.691 277.647 182.722 279.692 183.331C281.736 183.941 283.332 183.722 284.48 182.673C285.883 181.7 287.515 179.96 289.376 177.454L303.061 158.161L312.644 161.019L278.734 280.303L268.002 277.102C269.621 251.149 268.397 228.661 264.332 209.639C260.342 190.361 254.162 175.16 245.792 164.037C237.678 152.99 228.382 145.904 217.905 142.779C193.629 135.538 173.102 141.381 156.325 160.309C139.804 179.313 125.294 209.769 112.793 251.678C99.9117 294.865 95.2796 329.52 98.8969 355.644C102.59 381.512 118.236 398.562 145.835 406.794C170.367 414.111 191.727 410.604 209.916 396.271C228.437 381.76 242.479 361.738 252.042 336.206L265.841 340.322C260.577 355.17 252.734 369.806 242.31 384.228C232.141 398.726 218.532 409.833 201.482 417.548C184.433 425.264 164.664 425.767 142.176 419.06Z" fill="#34E3DA"/>
<path d="M140.5 191V135.5L186.5 124.5V191H140.5Z" fill="#35404A"/>
</svg>
